<?xml version="1.0" encoding="UTF-8"?>
<svg id="svg56" width="86px" height="86px" enable-background="new 0 0 86 86" version="1.1" viewBox="0 0 86 86" xml:space="preserve" xmlns="http://www.w3.org/2000/svg" xmlns:cc="http://creativecommons.org/ns#" xmlns:dc="http://purl.org/dc/elements/1.1/" xmlns:rdf="http://www.w3.org/1999/02/22-rdf-syntax-ns#"><metadata id="metadata62"><rdf:RDF><cc:Work rdf:about=""><dc:format>image/svg+xml</dc:format><dc:type rdf:resource="http://purl.org/dc/dcmitype/StillImage"/><dc:title/></cc:Work></rdf:RDF></metadata>
<path id="path907" d="m34.949 6.0371c-1.637 0.027714-2.9495 1.3628-2.9492 3 9.55e-4 1.2705 0.80214 2.4027 2 2.8262v2.1738h-7.1719c-0.42375-1.1985-1.5569-1.9999-2.8281-2-0.01693-1.43e-4 -0.033851-1.43e-4 -0.050781 0-1.637 0.02771-2.9495 1.3628-2.9492 3 0 1.6569 1.3431 3 3 3 1.2705-9.56e-4 2.4027-0.80214 2.8262-2h7.8867l7.2871 4.5527v3.9375a18.5 18.5 0 0 0-17.475 17.51h-5.5254v-3.1719c1.1985-0.42375 1.9999-1.5569 2-2.8281 0-1.6569-1.3431-3-3-3-0.01693-1.43e-4 -0.033851-1.43e-4 -0.050781 0-1.637 0.02771-2.9495 1.3628-2.9492 3 9.55e-4 1.2705 0.80214 2.4027 2 2.8262v3.6211l-6.4141 4.0078c-0.47572-0.29694-1.0251-0.4546-1.5859-0.45508-0.016927-1.43e-4 -0.033854-1.43e-4 -0.050781 0-1.637 0.02771-2.9495 1.3628-2.9492 3 0 1.6569 1.3431 3 3 3 1.6569 0 3-1.3431 3-3-2.33e-4 -0.33028-0.055009-0.65826-0.16211-0.9707l6.4473-4.0293h6.2441a18.5 18.5 0 0 0 17.471 17.436v7.5645h-11.586l-2.707-2.707c0.19286-0.40375 0.29296-0.84552 0.29297-1.293 0-1.6569-1.3431-3-3-3-0.01693-1.43e-4 -0.033851-1.43e-4 -0.050781 0-1.637 0.02771-2.9495 1.3628-2.9492 3 0 1.6569 1.3431 3 3 3 0.44744-1.3e-5 0.88922-0.10011 1.293-0.29297l3.293 3.293h14.414 5v1.1719c-1.1985 0.42375-1.9999 1.5569-2 2.8281 0 1.6569 1.3431 3 3 3s3-1.3431 3-3c-9.55e-4 -1.2705-0.80214-2.4027-2-2.8262v-1.1738h5 1.3613 10.811c0.42375 1.1985 1.5569 1.9999 2.8281 2 1.6569 0 3-1.3431 3-3s-1.3431-3-3-3c-0.01693-1.43e-4 -0.033861-1.43e-4 -0.050781 0-1.2526 0.0214-2.3599 0.81884-2.7773 2h-8.4102l2.8262-2.3535c0.43454 0.23198 0.91952 0.3534 1.4121 0.35352 1.6569 0 3-1.3431 3-3s-1.3431-3-3-3c-0.01693-1.43e-4 -0.033861-1.43e-4 -0.050781 0-1.637 0.02771-2.9495 1.3628-2.9492 3-1.16e-4 0.40121 0.08024 0.79837 0.23633 1.168l-4.5977 3.832h-0.63867-5-7v-7.5645a18.5 18.5 0 0 0 17.471-17.436h3.2441l6.4473 4.0293c-0.1071 0.31244-0.16188 0.64042-0.16211 0.9707 0 1.6569 1.3431 3 3 3s3-1.3431 3-3-1.3431-3-3-3c-0.01693-1.43e-4 -0.033861-1.43e-4 -0.050781 0-0.54416 0.0095-1.0755 0.16677-1.5371 0.45508l-5.6465-3.5293 5.7559-4.3164c0.45082 0.25574 0.96021 0.39032 1.4785 0.39062 1.6569 0 3-1.3431 3-3s-1.3431-3-3-3c-0.01693-1.43e-4 -0.033861-1.43e-4 -0.050781 0-1.637 0.02771-2.9495 1.3628-2.9492 3 1.73e-4 0.37431 0.07039 0.74528 0.20703 1.0938l-6.541 4.9062h-3.1914a18.5 18.5 0 0 0-17.475-17.51v-3.4902h19.172c0.42375 1.1985 1.5569 1.9999 2.8281 2 1.6569 0 3-1.3431 3-3s-1.3431-3-3-3c-0.01693-1.43e-4 -0.033861-1.43e-4 -0.050781 0-1.2526 0.0214-2.3599 0.81884-2.7773 2h-7.1719v-2.1719c1.1985-0.42375 1.9999-1.5569 2-2.8281 0-1.6569-1.3431-3-3-3-0.01693-1.43e-4 -0.033851-1.43e-4 -0.050781 0-1.637 0.02771-2.9495 1.3628-2.9492 3 9.55e-4 1.2705 0.80214 2.4027 2 2.8262v2.1738h-10.715l-7.2852-4.5547v-2.6172c1.1985-0.42375 1.9999-1.5569 2-2.8281 0-1.6569-1.3431-3-3-3-0.01693-1.433e-4 -0.033851-1.433e-4 -0.050781 0zm0.050781 2c0.55228 0 1 0.44772 1 1s-0.44772 1-1 1-1-0.44771-1-1 0.44772-1 1-1zm20 5c0.55228 0 1 0.44772 1 1s-0.44772 1-1 1-1-0.44772-1-1 0.44772-1 1-1zm-31 1c0.55228 0 1 0.44772 1 1s-0.44772 1-1 1-1-0.44772-1-1 0.44772-1 1-1zm42 5c0.55228 0 1 0.44772 1 1s-0.44772 1-1 1-1-0.44772-1-1 0.44772-1 1-1zm-23.088 10c7.732 0 14 6.268 14 14s-6.268 14-14 14-14-6.268-14-14 6.268-14 14-14zm-0.044921 0.875c-0.94891 0.02437-1.7054 0.80078-1.7051 1.75 0 0.9665 0.7835 1.75 1.75 1.75s1.75-0.7835 1.75-1.75-0.7835-1.75-1.75-1.75c-0.01432-1.76e-4 -0.028648-1.76e-4 -0.042968 0h-0.001953zm0.007812 0.875c0.01237-2.62e-4 0.024739-2.62e-4 0.037109 0 0.48325 0 0.875 0.39175 0.875 0.875s-0.39175 0.875-0.875 0.875-0.875-0.39175-0.875-0.875c-4.22e-4 -0.46912 0.36919-0.8551 0.83789-0.875zm-8.0469 2.457c-0.45005 0.01023-0.87885 0.1935-1.1973 0.51172-0.68454 0.68361-0.68454 1.793 0 2.4766 0.68361 0.68454 1.793 0.68454 2.4766 0 0.68454-0.68361 0.68454-1.793 0-2.4766-0.33378-0.33341-0.78804-0.51792-1.2598-0.51172-0.0065-3.6e-5 -0.01302-3.6e-5 -0.019531 0zm16.088 0c-0.45073 0.0097-0.88032 0.19304-1.1992 0.51172-0.68454 0.68361-0.68454 1.793 0 2.4766 0.68361 0.68454 1.793 0.68454 2.4766 0 0.68454-0.68361 0.68454-1.793 0-2.4766-0.32325-0.32287-0.75995-0.50652-1.2168-0.51172-0.014319-1.76e-4 -0.028648-1.76e-4 -0.042968 0-0.0059-2.9e-5 -0.011718-2.9e-5 -0.017578 0zm-16.086 0.87305c0.01237-2.62e-4 0.024739-2.62e-4 0.03711 0 0.48325 0 0.875 0.39175 0.875 0.875 0 0.48325-0.39175 0.875-0.875 0.875-0.48325 0-0.875-0.39175-0.875-0.875-4.23e-4 -0.46912 0.36919-0.85511 0.83789-0.875zm16.09 0c0.01237-2.62e-4 0.024739-2.62e-4 0.037109 0 0.48325 0 0.875 0.39175 0.875 0.875 0 0.48325-0.39175 0.875-0.875 0.875s-0.875-0.39175-0.875-0.875c-4.22e-4 -0.46912 0.36919-0.8551 0.83789-0.875zm-8.0723 0.16992c-4.8073 0.03541-8.6857 3.9426-8.6855 8.75 0 4.8325 3.9175 8.75 8.75 8.75s8.75-3.9175 8.75-8.75-3.9175-8.75-8.75-8.75c-0.0059-6e-6 -0.011718-6e-6 -0.017578 0-0.01563-4.2e-5 -0.031255-4.2e-5 -0.046875 0zm-24.848 0.75c0.55228 0 1 0.44772 1 1s-0.44772 1-1 1-1-0.44772-1-1 0.44772-1 1-1zm56 0c0.55228 0 1 0.44772 1 1s-0.44772 1-1 1-1-0.44772-1-1 0.44772-1 1-1zm-42.508 6.25c-0.94891 0.02437-1.7054 0.80078-1.7051 1.75 0 0.9665 0.7835 1.75 1.75 1.75s1.75-0.7835 1.75-1.75-0.7835-1.75-1.75-1.75c-0.01432-1.76e-4 -0.028648-1.76e-4 -0.042968 0h-0.001953zm22.75 0c-0.94891 0.02437-1.7054 0.80078-1.7051 1.75 0 0.9665 0.7835 1.75 1.75 1.75s1.75-0.7835 1.75-1.75-0.7835-1.75-1.75-1.75c-0.01432-1.76e-4 -0.028648-1.76e-4 -0.042968 0h-0.001953zm-22.742 0.875c0.01237-2.62e-4 0.024739-2.62e-4 0.037109 0 0.48325 0 0.875 0.39175 0.875 0.875s-0.39175 0.875-0.875 0.875-0.875-0.39175-0.875-0.875c-4.22e-4 -0.46912 0.36919-0.8551 0.83789-0.875zm22.75 0c0.01237-2.62e-4 0.024739-2.62e-4 0.037109 0 0.48325 0 0.875 0.39175 0.875 0.875s-0.39175 0.875-0.875 0.875-0.875-0.39175-0.875-0.875c-4.22e-4 -0.46912 0.36919-0.8551 0.83789-0.875zm-45.25 5.875c0.55228 0 1 0.44772 1 1s-0.44772 1-1 1c-0.55228 0-1-0.44772-1-1s0.44772-1 1-1zm65 0c0.55228 0 1 0.44772 1 1s-0.44772 1-1 1-1-0.44772-1-1 0.44772-1 1-1zm-39.17 1.2949c-0.45046 0.0092-0.88 0.1918-1.1992 0.50977-0.68454 0.68361-0.68454 1.793 0 2.4766 0.68361 0.68454 1.793 0.68454 2.4766 0 0.68454-0.68361 0.68454-1.793 0-2.4766-0.32357-0.32215-0.76023-0.50509-1.2168-0.50977-0.01432-1.76e-4 -0.028649-1.76e-4 -0.042969 0-0.0059-2.9e-5 -0.011718-2.9e-5 -0.017578 0zm16.086 0c-0.45046 0.0092-0.88001 0.19181-1.1992 0.50977-0.68454 0.68361-0.68454 1.793 0 2.4766 0.68361 0.68454 1.793 0.68454 2.4766 0 0.68454-0.68361 0.68454-1.793 0-2.4766-0.3341-0.33269-0.78832-0.51649-1.2598-0.50977-0.0059-2.9e-5 -0.011718-2.9e-5 -0.017578 0zm-16.098 0.875c0.01627-4.54e-4 0.032559-4.54e-4 0.048829 0 0.48325 0 0.875 0.39175 0.875 0.875 0 0.48325-0.39175 0.875-0.875 0.875-0.48325 0-0.875-0.39175-0.875-0.875-7.24e-4 -0.46481 0.36209-0.84906 0.82617-0.875zm16.086 0c0.01757-5.3e-4 0.035164-5.3e-4 0.052734 0 0.48325 0 0.875 0.39175 0.875 0.875s-0.39175 0.875-0.875 0.875-0.875-0.39175-0.875-0.875c-8.42e-4 -0.46338 0.35972-0.84707 0.82227-0.875zm-8.0371 2.4551c-0.1037 0.0025-0.20698 0.014307-0.30859 0.035157-0.13566 0.02857-0.26744 0.073149-0.39258 0.13281-0.06308 0.02888-0.12439 0.061486-0.18359 0.097656-0.05905 0.03758-0.11579 0.07867-0.16992 0.12305-0.02737 0.02198-0.054078 0.04478-0.080078 0.06836-0.02476 0.02274-0.048856 0.046192-0.072266 0.070312-0.04868 0.04996-0.094339 0.10279-0.13672 0.1582-0.04244 0.05492-0.081571 0.11231-0.11719 0.17188-0.03556 0.05989-0.067523 0.12185-0.095703 0.18555-0.09812 0.22279-0.14867 0.4636-0.14844 0.70703-1.76e-4 0.01432-1.76e-4 0.028649 0 0.042969v0.001953c6e-3 0.20776 0.049011 0.41279 0.12695 0.60547v0.001953c0.025571 0.06418 0.054921 0.12679 0.087891 0.1875 0.0064 0.01114 0.012901 0.022213 0.019531 0.033203 0.02759 0.04961 0.057574 0.097841 0.089844 0.14453 0.12156 0.16924 0.27236 0.31542 0.44531 0.43164h0.001953c0.02808 0.01972 0.056737 0.038611 0.085937 0.056641 0.03011 0.01718 0.060717 0.033458 0.091797 0.048828 0.09261 0.04826 0.18935 0.08813 0.28906 0.11914 0.16586 0.0506 0.33831 0.076271 0.51172 0.076171 0.01432 1.76e-4 0.028649 1.76e-4 0.042969 0 0.03458-0.0016 0.069091-0.004212 0.10352-0.007812 0.03461-0.0029 0.069129-0.006799 0.10352-0.011719 0.06912-0.0096 0.1376-0.023265 0.20508-0.041016 0.13392-0.036009 0.26308-0.087799 0.38476-0.1543 0.0607-0.03296 0.1194-0.06948 0.17578-0.10938 0.02864-0.02063 0.056655-0.042133 0.083985-0.064453 0.0805-0.06552 0.15501-0.13807 0.22266-0.2168 0.04552-0.05213 0.08792-0.10691 0.12695-0.16406 0.03869-0.05775 0.07391-0.11775 0.10547-0.17969 0.04826-0.09261 0.088131-0.18935 0.11914-0.28906 0.0506-0.16586 0.076271-0.33831 0.076171-0.51172 1.92e-4 -0.01497 1.92e-4 -0.029952 0-0.044921-0.0025-0.1037-0.014306-0.20698-0.035156-0.30859-0.0074-0.0341-0.01592-0.067971-0.025391-0.10156-0.027119-0.09999-0.063069-0.19738-0.10742-0.29102-0.02888-0.06308-0.061487-0.12439-0.097657-0.18359-0.32042-0.51105-0.88129-0.82092-1.4844-0.82031-0.01432-1.76e-4 -0.028648-1.76e-4 -0.042968 0h-0.001953zm0.007812 0.875c0.01237-2.62e-4 0.024739-2.62e-4 0.037109 0 0.48325 0 0.875 0.39175 0.875 0.875s-0.39175 0.875-0.875 0.875-0.875-0.39175-0.875-0.875c-4.22e-4 -0.46912 0.36919-0.8551 0.83789-0.875zm21.125 9.5c0.55228 0 1 0.44772 1 1s-0.44772 1-1 1-1-0.44772-1-1 0.44772-1 1-1zm-39 1c0.55228 0 1 0.44772 1 1s-0.44772 1-1 1-1-0.44772-1-1 0.44772-1 1-1zm46 5c0.55228 0 1 0.44772 1 1s-0.44772 1-1 1-1-0.44772-1-1 0.44772-1 1-1zm-21 5c0.55228 0 1 0.44772 1 1s-0.44772 1-1 1-1-0.44772-1-1 0.44772-1 1-1z" fill="#fff" stroke-width="1.0138"/>

</svg>
