<?xml version="1.0" encoding="UTF-8"?>
<svg id="svg56" width="256" height="352" enable-background="new 0 0 86 86" version="1.1" viewBox="0 0 256 352" xml:space="preserve" xmlns="http://www.w3.org/2000/svg" xmlns:cc="http://creativecommons.org/ns#" xmlns:dc="http://purl.org/dc/elements/1.1/" xmlns:rdf="http://www.w3.org/1999/02/22-rdf-syntax-ns#"><metadata id="metadata62"><rdf:RDF><cc:Work rdf:about=""><dc:format>image/svg+xml</dc:format><dc:type rdf:resource="http://purl.org/dc/dcmitype/StillImage"/><dc:title/></cc:Work></rdf:RDF></metadata>


<path id="rect1021" d="m-1 0v63.992a64 64 0 0 0 1 0.007812 64 64 0 0 0 64-64h-65zm71 0c0 8.7892 7.2108 16 16 16s16-7.2108 16-16h-8c0 4.4657-3.5343 8-8 8s-8-3.5343-8-8h-8zm38 0a108 108 0 0 1-108 108 108 108 0 0 1-1-0.00586v132.07c0.32788-0.03979 0.66019-0.06641 1-0.06641 4.4657 0 8 3.5343 8 8s-3.5343 8-8 8c-0.33981 0-0.67212-0.02662-1-0.06641v8.0156c0.33226 0.02091 0.66278 0.05078 1 0.05078 2.209 0 4.3161-0.45772 6.2363-1.2793l43.043 43.043c-0.82158 1.9202-1.2793 4.0273-1.2793 6.2363 0 8.7892 7.2108 16 16 16s16-7.2108 16-16-7.2108-16-16-16c-2.209 0-4.3161 0.45772-6.2363 1.2793l-43.043-43.043c0.82158-1.9202 1.2793-4.0273 1.2793-6.2363s-0.45772-4.3161-1.2793-6.2363l43.043-43.043c1.9202 0.82158 4.0273 1.2793 6.2363 1.2793 8.7892 0 16-7.2108 16-16s-7.2108-16-16-16-16 7.2108-16 16c0 2.209 0.45772 4.3161 1.2793 6.2363l-43.043 43.043c-0.076961-0.03293-0.15877-0.05614-0.23633-0.08789v-105.33a128 128 0 0 0 80.168-33.207l51.111 51.111c-0.82158 1.9202-1.2793 4.0273-1.2793 6.2363 0 6.6694 4.1569 12.422 10 14.812v82.375c-5.8431 2.3907-10 8.1431-10 14.812 0 8.7892 7.2108 16 16 16s16-7.2108 16-16c0-6.6694-4.1569-12.422-10-14.812v-82.375c3.9865-1.6311 7.1843-4.8282 8.8164-8.8125h42.371c2.3907 5.8431 8.1431 10 14.812 10 8.7892 0 16-7.2108 16-16s-7.2108-16-16-16c-6.6694 0-12.422 4.1569-14.812 10h-42.375c-2.3907-5.8431-8.1431-10-14.812-10-2.209 0-4.3161 0.45772-6.2363 1.2793l-51.111-51.111a128 128 0 0 0 33.207-80.168h57.324c1.6321 3.9843 4.8299 7.1814 8.8164 8.8125v42.375c-5.8431 2.3907-10 8.1431-10 14.812 0 8.7892 7.2108 16 16 16s16-7.2108 16-16c0-6.6694-4.1569-12.422-10-14.812v-42.375c5.8431-2.3907 10-8.1431 10-14.812h-8c0 4.4657-3.5343 8-8 8s-8-3.5343-8-8h-84zm-47.189 44.836c-4.1031-1e-6 -8.2051 1.5547-11.312 4.6621-6.2149 6.2149-6.2149 16.412 0 22.627s16.412 6.2149 22.627 0 6.2149-16.412 0-22.627c-3.1074-3.1074-7.2113-4.6621-11.314-4.6621zm0 7.9492c2.039 0 4.0794 0.79029 5.6582 2.3691 3.1577 3.1577 3.1577 8.1568 0 11.314s-8.1568 3.1577-11.314 0-3.1577-8.1568 0-11.314c1.5788-1.5788 3.6172-2.3691 5.6562-2.3691zm139.19 11.215c4.4657 0 8 3.5343 8 8s-3.5343 8-8 8-8-3.5343-8-8 3.5343-8 8-8zm-200 6c-0.33722 0-0.66774 0.029869-1 0.050781v8.0156c0.32787-0.039777 0.66019-0.066406 1-0.066406 4.4657 0 8 3.5343 8 8s-3.5343 8-8 8c-0.33981 0-0.67212-0.026623-1-0.066406v8.0215c0.33171 0.02084 0.66335 0.04492 1 0.04492 8.7892 0 16-7.2108 16-16s-7.2108-16-16-16zm152 74c4.4657 0 8 3.5343 8 8s-3.5343 8-8 8-8-3.5343-8-8 3.5343-8 8-8zm72 0c4.4657 0 8 3.5343 8 8s-3.5343 8-8 8-8-3.5343-8-8 3.5343-8 8-8zm-160 32c4.4657 0 8 3.5343 8 8s-3.5343 8-8 8-8-3.5343-8-8 3.5343-8 8-8zm88 80c4.4657 0 8 3.5343 8 8s-3.5343 8-8 8-8-3.5343-8-8 3.5343-8 8-8zm-88 48c4.4657 0 8 3.5343 8 8s-3.5343 8-8 8-8-3.5343-8-8 3.5343-8 8-8z" fill="#fff"/></svg>
