<?xml version="1.0" encoding="UTF-8" standalone="no"?>
<svg
   xmlns:dc="http://purl.org/dc/elements/1.1/"
   xmlns:cc="http://creativecommons.org/ns#"
   xmlns:rdf="http://www.w3.org/1999/02/22-rdf-syntax-ns#"
   xmlns:svg="http://www.w3.org/2000/svg"
   xmlns="http://www.w3.org/2000/svg"
   xmlns:xlink="http://www.w3.org/1999/xlink"
   xmlns:sodipodi="http://sodipodi.sourceforge.net/DTD/sodipodi-0.dtd"
   xmlns:inkscape="http://www.inkscape.org/namespaces/inkscape"
   version="1.1"
   x="0px"
   y="0px"
   width="86px"
   height="86px"
   viewBox="0 0 86 86"
   enable-background="new 0 0 86 86"
   xml:space="preserve"
   id="svg56"
   sodipodi:docname="harbour-quartermaster.svg"
   inkscape:version="1.0.1 (3bc2e813f5, 2020-09-07)"><metadata
   id="metadata62"><rdf:RDF><cc:Work
       rdf:about=""><dc:format>image/svg+xml</dc:format><dc:type
         rdf:resource="http://purl.org/dc/dcmitype/StillImage" /><dc:title /></cc:Work></rdf:RDF></metadata><defs
   id="defs60"><linearGradient
   inkscape:collect="always"
   id="linearGradient1019"><stop
     style="stop-color:#ffffff;stop-opacity:1;"
     offset="0"
     id="stop1015" /><stop
     style="stop-color:#ffffff;stop-opacity:0.66666669"
     offset="1"
     id="stop1017" /></linearGradient><linearGradient
   inkscape:collect="always"
   id="linearGradient863"><stop
     style="stop-color:#ffffff;stop-opacity:1"
     offset="0"
     id="stop859" /><stop
     style="stop-color:#ffffff;stop-opacity:0.93333334"
     offset="0.56532902"
     id="stop867" /><stop
     style="stop-color:#ffffff;stop-opacity:0.06666667"
     offset="1"
     id="stop861" /></linearGradient><linearGradient
   inkscape:collect="always"
   id="linearGradient1064"><stop
     style="stop-color:#ffffff;stop-opacity:1;"
     offset="0"
     id="stop1060" /><stop
     style="stop-color:#ffffff;stop-opacity:0.93333334"
     offset="0.68292683"
     id="stop1217" /><stop
     style="stop-color:#ffffff;stop-opacity:0.2"
     offset="1"
     id="stop1062" /></linearGradient>
	
		<radialGradient
   id="SVGID_1_"
   cx="481.8537"
   cy="348.9771"
   r="44.7903"
   gradientTransform="matrix(0,0.953,-0.9513,0,374.8925,-416.2066)"
   gradientUnits="userSpaceOnUse">
		<stop
   offset="0"
   style="stop-color:#6EFFF8"
   id="stop3" />
		<stop
   offset="1"
   style="stop-color:#009DFF"
   id="stop5" />
	</radialGradient>
	
	
	
	<linearGradient
   id="SVGID_2_"
   gradientUnits="userSpaceOnUse"
   x1="28.1058"
   y1="27.843"
   x2="57.9244"
   y2="57.6616">
		<stop
   offset="0"
   style="stop-color:#FFFFFF"
   id="stop46" />
		<stop
   offset="1"
   style="stop-color:#F3EDD1"
   id="stop48" />
	</linearGradient>
	
	
<radialGradient
   inkscape:collect="always"
   xlink:href="#linearGradient1064"
   id="radialGradient1066"
   cx="42.911133"
   cy="43"
   fx="42.911133"
   fy="43"
   r="42.610351"
   gradientTransform="matrix(1.2925235,2.2670775e-5,-1.9489564e-5,1.1112256,-12.551672,-4.7836754)"
   gradientUnits="userSpaceOnUse" /><radialGradient
   inkscape:collect="always"
   xlink:href="#linearGradient863"
   id="radialGradient865"
   cx="42.911133"
   cy="43"
   fx="42.911133"
   fy="43"
   r="42.610351"
   gradientTransform="matrix(1.000751,-5.818211e-8,6.4068407e-8,1.0017189,-0.03223018,-0.07390959)"
   gradientUnits="userSpaceOnUse" /><linearGradient
   id="SVGID_3_"
   gradientUnits="userSpaceOnUse"
   x1="74.432701"
   y1="74.445297"
   x2="11.5547"
   y2="11.5673"><stop
     offset="0.0054"
     style="stop-color:#1E87FF"
     id="stop17" /><stop
     offset="1"
     style="stop-color:#00C8DE"
     id="stop19" /></linearGradient><radialGradient
   inkscape:collect="always"
   xlink:href="#linearGradient1019"
   id="radialGradient1021"
   cx="43"
   cy="43"
   fx="43"
   fy="43"
   r="32.050781"
   gradientTransform="matrix(1,0,0,1.0017063,0,-0.07337057)"
   gradientUnits="userSpaceOnUse" /></defs><sodipodi:namedview
   pagecolor="#ffffff"
   bordercolor="#666666"
   borderopacity="1"
   objecttolerance="10"
   gridtolerance="10"
   guidetolerance="10"
   inkscape:pageopacity="0"
   inkscape:pageshadow="2"
   inkscape:window-width="1920"
   inkscape:window-height="1015"
   id="namedview58"
   showgrid="true"
   inkscape:zoom="4"
   inkscape:cx="-45.183502"
   inkscape:cy="85.368509"
   inkscape:window-x="0"
   inkscape:window-y="0"
   inkscape:window-maximized="1"
   inkscape:current-layer="svg56"
   inkscape:document-rotation="0"><inkscape:grid
     type="xygrid"
     id="grid1077" /></sodipodi:namedview>
<path
   id="rect1017"
   style="fill:url(#radialGradient865);fill-opacity:1;stroke-width:2;stroke-linecap:square;stroke-linejoin:round;stroke-miterlimit:4;stroke-dasharray:none"
   d="M 1.7207031 0.31640625 C 0.93670313 0.31640625 0.30078125 0.95423437 0.30078125 1.7402344 L 0.30078125 5 L 0.30078125 28 L 33.050781 28 C 35.716878 26.232127 38.805947 25.206707 42 25.029297 L 42 20.552734 L 34.712891 16 L 26.826172 16 A 3 3 0 0 1 24 18 A 3 3 0 0 1 21 15 A 3 3 0 0 1 23.949219 12 A 3 3 0 0 1 24 12 A 3 3 0 0 1 26.828125 14 L 34 14 L 34 11.826172 A 3 3 0 0 1 32 9 A 3 3 0 0 1 34.949219 6 A 3 3 0 0 1 35 6 A 3 3 0 0 1 38 9 A 3 3 0 0 1 36 11.828125 L 36 14.445312 L 43.285156 19 L 54 19 L 54 16.826172 A 3 3 0 0 1 52 14 A 3 3 0 0 1 54.949219 11 A 3 3 0 0 1 55 11 A 3 3 0 0 1 58 14 A 3 3 0 0 1 56 16.828125 L 56 19 L 63.171875 19 A 3 3 0 0 1 65.949219 17 A 3 3 0 0 1 66 17 A 3 3 0 0 1 69 20 A 3 3 0 0 1 66 23 A 3 3 0 0 1 63.171875 21 L 44 21 L 44 25.027344 C 47.193565 25.20568 50.281932 26.231765 52.947266 28 L 82.808594 28 C 82.797507 27.970425 82.784588 27.941653 82.773438 27.912109 C 82.549303 27.318275 82.31395 26.729232 82.064453 26.148438 C 78.135628 17.002677 71.104668 9.5160785 62.300781 5 L 62.306641 5 C 56.486937 2.0132082 49.898538 0.31640625 42.910156 0.31640625 L 1.7207031 0.31640625 z M 35 8 A 1 1 0 0 0 34 9 A 1 1 0 0 0 35 10 A 1 1 0 0 0 36 9 A 1 1 0 0 0 35 8 z M 55 13 A 1 1 0 0 0 54 14 A 1 1 0 0 0 55 15 A 1 1 0 0 0 56 14 A 1 1 0 0 0 55 13 z M 24 14 A 1 1 0 0 0 23 15 A 1 1 0 0 0 24 16 A 1 1 0 0 0 25 15 A 1 1 0 0 0 24 14 z M 66 19 A 1 1 0 0 0 65 20 A 1 1 0 0 0 66 21 A 1 1 0 0 0 67 20 A 1 1 0 0 0 66 19 z M 0.30078125 31 L 0.30078125 43 C 0.30078125 43.650909 0.32082769 44.297613 0.34960938 44.941406 C 0.35886263 45.145768 0.37067152 45.349144 0.3828125 45.552734 C 0.40873089 45.992619 0.44330233 46.429033 0.48242188 46.865234 C 0.50370406 47.100099 0.51983552 47.33657 0.54492188 47.570312 C 0.60306664 48.117213 0.67533755 48.660643 0.75390625 49.201172 C 0.80393688 49.542664 0.8618725 49.88188 0.91992188 50.220703 C 0.96059004 50.459638 1.0022595 50.697983 1.046875 50.935547 C 1.1158315 51.300651 1.1855465 51.66556 1.2636719 52.027344 C 1.2926404 52.162057 1.3252341 52.29545 1.3554688 52.429688 C 1.5463116 53.273888 1.7606156 54.108892 2 54.933594 C 2.0063731 54.95555 2.0111714 54.978059 2.0175781 55 L 29.705078 55 C 26.976524 51.949584 25.394653 48.066631 25.167969 44 L 18.285156 44 L 11.837891 48.029297 A 3 3 0 0 1 12 49 A 3 3 0 0 1 9 52 A 3 3 0 0 1 6 49 A 3 3 0 0 1 8.9492188 46 A 3 3 0 0 1 9 46 A 3 3 0 0 1 10.585938 46.455078 L 17 42.447266 L 17 38.826172 A 3 3 0 0 1 15 36 A 3 3 0 0 1 17.949219 33 A 3 3 0 0 1 18 33 A 3 3 0 0 1 21 36 A 3 3 0 0 1 19 38.828125 L 19 42 L 25.167969 42 C 25.394653 37.933369 26.976524 34.050416 29.705078 31 L 0.30078125 31 z M 56.537109 31 C 59.265664 34.050416 60.847534 37.933369 61.074219 42 L 64.666016 42 L 71.207031 37.09375 A 3 3 0 0 1 71 36 A 3 3 0 0 1 73.949219 33 A 3 3 0 0 1 74 33 A 3 3 0 0 1 77 36 A 3 3 0 0 1 74 39 A 3 3 0 0 1 72.521484 38.609375 L 66.765625 42.925781 L 72.412109 46.455078 A 3 3 0 0 1 73.949219 46 A 3 3 0 0 1 74 46 A 3 3 0 0 1 77 49 A 3 3 0 0 1 74 52 A 3 3 0 0 1 71 49 A 3 3 0 0 1 71.162109 48.029297 L 64.714844 44 L 61.074219 44 C 60.847534 48.066631 59.265664 51.949584 56.537109 55 L 85.521484 55 L 85.521484 43 C 85.521484 42.328803 85.501297 41.661667 85.470703 40.998047 C 85.46352 40.84466 85.454127 40.692015 85.445312 40.539062 C 85.416086 40.024246 85.375409 39.513679 85.328125 39.003906 C 85.311882 38.830975 85.29956 38.656697 85.28125 38.484375 C 85.221806 37.918329 85.14772 37.356107 85.066406 36.796875 C 85.018776 36.472407 84.965026 36.150184 84.910156 35.828125 C 84.866447 35.569502 84.821769 35.311705 84.773438 35.054688 C 84.701957 34.677145 84.628143 34.299768 84.546875 33.925781 C 84.544634 33.915418 84.543264 33.904892 84.541016 33.894531 C 84.530289 33.845345 84.516753 33.79717 84.505859 33.748047 C 84.305162 32.843053 84.076542 31.949111 83.820312 31.066406 C 83.813935 31.044433 83.809146 31.021958 83.802734 31 L 56.537109 31 z M 18 35 A 1 1 0 0 0 17 36 A 1 1 0 0 0 18 37 A 1 1 0 0 0 19 36 A 1 1 0 0 0 18 35 z M 74 35 A 1 1 0 0 0 73 36 A 1 1 0 0 0 74 37 A 1 1 0 0 0 75 36 A 1 1 0 0 0 74 35 z M 9 48 A 1 1 0 0 0 8 49 A 1 1 0 0 0 9 50 A 1 1 0 0 0 10 49 A 1 1 0 0 0 9 48 z M 74 48 A 1 1 0 0 0 73 49 A 1 1 0 0 0 74 50 A 1 1 0 0 0 75 49 A 1 1 0 0 0 74 48 z M 3.0117188 58 C 3.0304328 58.049921 3.0514173 58.098606 3.0703125 58.148438 C 3.4349962 59.110195 3.834956 60.053555 4.265625 60.980469 C 4.3034279 61.061831 4.3367008 61.145481 4.375 61.226562 C 4.5561043 61.60997 4.7493306 61.986269 4.9414062 62.363281 C 5.0336673 62.544448 5.1239928 62.72659 5.21875 62.90625 C 5.4094538 63.267667 5.6079204 63.625308 5.8085938 63.980469 C 5.9090618 64.158356 6.0103494 64.335431 6.1132812 64.511719 C 6.3284626 64.880093 6.5476472 65.246211 6.7734375 65.607422 C 6.8573677 65.741753 6.9439211 65.87449 7.0292969 66.007812 C 7.2795808 66.398462 7.5324012 66.788135 7.7949219 67.169922 C 7.800764 67.178418 7.8066519 67.186821 7.8125 67.195312 C 8.4566207 68.130614 9.1348871 69.038796 9.8496094 69.917969 C 10.173635 70.316549 10.507777 70.70731 10.845703 71.09375 C 10.895213 71.150405 10.944337 71.207282 10.994141 71.263672 C 11.32738 71.64073 11.66749 72.010021 12.013672 72.375 C 12.077325 72.442157 12.140995 72.50943 12.205078 72.576172 C 12.556899 72.94232 12.914722 73.304793 13.279297 73.658203 C 13.317981 73.695728 13.357658 73.732152 13.396484 73.769531 C 15.426475 75.72257 17.6471 77.477005 20.03125 79 C 26.642543 83.22523 34.486641 85.683594 42.910156 85.683594 L 84.101562 85.683594 C 84.885563 85.683594 85.521484 85.046719 85.521484 84.261719 L 85.521484 79 L 85.521484 58 L 52.949219 58 C 50.278687 59.771431 47.187686 60.785209 44 60.962891 L 44 69 L 51 69 L 56 69 L 56.638672 69 L 61.236328 65.167969 A 3 3 0 0 1 61 64 A 3 3 0 0 1 63.949219 61 A 3 3 0 0 1 64 61 A 3 3 0 0 1 67 64 A 3 3 0 0 1 64 67 A 3 3 0 0 1 62.587891 66.646484 L 59.761719 69 L 68.171875 69 A 3 3 0 0 1 70.949219 67 A 3 3 0 0 1 71 67 A 3 3 0 0 1 74 70 A 3 3 0 0 1 71 73 A 3 3 0 0 1 68.171875 71 L 57.361328 71 L 56 71 L 51 71 L 51 72.173828 A 3 3 0 0 1 53 75 A 3 3 0 0 1 50 78 A 3 3 0 0 1 47 75 A 3 3 0 0 1 49 72.171875 L 49 71 L 44 71 L 29.585938 71 L 26.292969 67.707031 A 3 3 0 0 1 25 68 A 3 3 0 0 1 22 65 A 3 3 0 0 1 24.949219 62 A 3 3 0 0 1 25 62 A 3 3 0 0 1 28 65 A 3 3 0 0 1 27.707031 66.292969 L 30.414062 69 L 42 69 L 42 60.962891 C 38.812926 60.784929 35.722765 59.771098 33.052734 58 L 3.0117188 58 z M 64 63 A 1 1 0 0 0 63 64 A 1 1 0 0 0 64 65 A 1 1 0 0 0 65 64 A 1 1 0 0 0 64 63 z M 25 64 A 1 1 0 0 0 24 65 A 1 1 0 0 0 25 66 A 1 1 0 0 0 26 65 A 1 1 0 0 0 25 64 z M 71 69 A 1 1 0 0 0 70 70 A 1 1 0 0 0 71 71 A 1 1 0 0 0 72 70 A 1 1 0 0 0 71 69 z M 50 74 A 1 1 0 0 0 49 75 A 1 1 0 0 0 50 76 A 1 1 0 0 0 51 75 A 1 1 0 0 0 50 74 z " /><path
   id="path1106"
   style="fill:url(#radialGradient1066);stroke-width:0.999998;stroke-linecap:square;stroke-linejoin:round;fill-opacity:1"
   d="M 0.30078125 4 L 0.30078125 28 L 33.050781 28 A 18 18 0 0 1 43 25 A 18 18 0 0 1 52.947266 28 L 82.808594 28 C 78.79288 17.288025 70.601322 8.6303515 60.220703 4 L 0.30078125 4 z M 0.30078125 31 L 0.30078125 43 C 0.30078125 47.167866 0.90571089 51.192145 2.0175781 55 L 29.705078 55 A 18 18 0 0 1 25.121094 43 A 18 18 0 0 1 29.705078 31 L 0.30078125 31 z M 56.537109 31 A 18 18 0 0 1 61.121094 43 A 18 18 0 0 1 56.537109 55 L 85.521484 55 L 85.521484 43 C 85.521484 38.832134 84.914602 34.807804 83.802734 31 L 56.537109 31 z M 3.0117188 58 C 7.0269546 68.710879 15.21684 77.36904 25.595703 82 L 85.521484 82 L 85.521484 58 L 52.949219 58 A 18 18 0 0 1 43 61 A 18 18 0 0 1 33.052734 58 L 3.0117188 58 z " /><g
   id="Layer_2"
   display="none">
</g>
<path
   fill="url(#SVGID_1_)"
   d="M 85.521,84.261 V 43 C 85.521,19.426 66.443,0.317 42.91,0.317 H 1.72 C 0.936,0.317 0.3,0.954 0.3,1.74 V 43 c 0,23.574 19.078,42.684 42.611,42.684 h 41.19 c 0.784,0 1.42,-0.638 1.42,-1.423 z"
   id="path8"
   style="fill:url(#SVGID_1_)" />
<path
   id="path914"
   style="fill:#ffffff;fill-opacity:1;stroke-width:1.00001;stroke-linecap:square;stroke-linejoin:round"
   d="M 43,29 A 14,14 0 0 0 29,43 14,14 0 0 0 43,57 14,14 0 0 0 57,43 14,14 0 0 0 43,29 Z m -0.04443,0.875 a 1.75,1.75 0 0 1 0.0018,0 1.75,1.75 0 0 1 0.04273,0 1.75,1.75 0 0 1 1.75,1.75 1.75,1.75 0 0 1 -1.75,1.75 1.75,1.75 0 0 1 -1.75,-1.75 1.75,1.75 0 0 1 1.705566,-1.75 z M 43,30.75 A 0.875,0.875 0 0 0 42.125,31.625 0.875,0.875 0 0 0 43,32.5 0.875,0.875 0 0 0 43.875,31.625 0.875,0.875 0 0 0 43,30.75 Z m -8.064697,2.45752 a 1.75,1.75 0 0 1 1.259521,0.510986 1.75,1.75 0 0 1 0,2.476318 1.75,1.75 0 0 1 -2.476318,0 1.75,1.75 0 0 1 0,-2.476318 1.75,1.75 0 0 1 1.216797,-0.510986 z m 16.08667,0 a 1.75,1.75 0 0 1 0.04273,0 1.75,1.75 0 0 1 1.216797,0.510986 1.75,1.75 0 0 1 0,2.476318 1.75,1.75 0 0 1 -2.476318,0 1.75,1.75 0 0 1 0,-2.476318 1.75,1.75 0 0 1 1.216797,-0.510986 z m -16.066162,0.873291 a 0.875,0.875 0 0 0 -0.875,0.875 0.875,0.875 0 0 0 0.875,0.875 0.875,0.875 0 0 0 0.875,-0.875 0.875,0.875 0 0 0 -0.875,-0.875 z m 16.088378,0 a 0.875,0.875 0 0 0 -0.875,0.875 0.875,0.875 0 0 0 0.875,0.875 0.875,0.875 0 0 0 0.875,-0.875 0.875,0.875 0 0 0 -0.875,-0.875 z M 42.98291,34.25 A 8.75,8.75 0 0 1 43,34.25 8.75,8.75 0 0 1 51.75,43 8.75,8.75 0 0 1 43,51.75 8.75,8.75 0 0 1 34.25,43 8.75,8.75 0 0 1 42.98291,34.25 Z m -11.402343,7 a 1.75,1.75 0 0 1 0.0018,0 1.75,1.75 0 0 1 0.04273,0 1.75,1.75 0 0 1 1.75,1.75 1.75,1.75 0 0 1 -1.75,1.75 1.75,1.75 0 0 1 -1.75,-1.75 1.75,1.75 0 0 1 1.705566,-1.75 z m 22.75,0 a 1.75,1.75 0 0 1 0.0018,0 1.75,1.75 0 0 1 0.04273,0 1.75,1.75 0 0 1 1.75,1.75 1.75,1.75 0 0 1 -1.75,1.75 1.75,1.75 0 0 1 -1.75,-1.75 1.75,1.75 0 0 1 1.705567,-1.75 z M 31.625,42.125 A 0.875,0.875 0 0 0 30.75,43 0.875,0.875 0 0 0 31.625,43.875 0.875,0.875 0 0 0 32.5,43 0.875,0.875 0 0 0 31.625,42.125 Z m 22.75,0 A 0.875,0.875 0 0 0 53.5,43 0.875,0.875 0 0 0 54.375,43.875 0.875,0.875 0 0 0 55.25,43 0.875,0.875 0 0 0 54.375,42.125 Z m -19.439697,7.169189 a 1.75,1.75 0 0 1 0.04273,0 1.75,1.75 0 0 1 1.216797,0.510987 1.75,1.75 0 0 1 0,2.476318 1.75,1.75 0 0 1 -2.476319,0 1.75,1.75 0 0 1 0,-2.476318 1.75,1.75 0 0 1 1.216797,-0.510987 z m 16.08667,0 a 1.75,1.75 0 0 1 1.259521,0.510987 1.75,1.75 0 0 1 0,2.476318 1.75,1.75 0 0 1 -2.476318,0 1.75,1.75 0 0 1 0,-2.476318 1.75,1.75 0 0 1 1.216797,-0.510987 z m -16.115723,0.875 a 0.875,0.875 0 0 0 -0.825439,0.875 0.875,0.875 0 0 0 0.875,0.875 0.875,0.875 0 0 0 0.875,-0.875 0.875,0.875 0 0 0 -0.875,-0.875 0.875,0.875 0 0 0 -0.04956,0 z m 16.08667,0 a 0.875,0.875 0 0 0 -0.823731,0.875 0.875,0.875 0 0 0 0.875,0.875 0.875,0.875 0 0 0 0.875,-0.875 0.875,0.875 0 0 0 -0.875,-0.875 0.875,0.875 0 0 0 -0.05127,0 z M 42.955567,52.625 a 1.75,1.75 0 0 1 0.0018,0 1.75,1.75 0 0 1 0.04273,0 1.75,1.75 0 0 1 1.483398,0.820312 1.75,1.75 0 0 1 0.09912,0.182862 1.75,1.75 0 0 1 0.107666,0.292236 1.75,1.75 0 0 1 0.02392,0.10083 1.75,1.75 0 0 1 0.03585,0.309327 1.75,1.75 0 0 1 0,0.04443 1.75,1.75 0 0 1 -0.0769,0.512696 1.75,1.75 0 0 1 -0.117919,0.288818 1.75,1.75 0 0 1 -0.105957,0.179443 1.75,1.75 0 0 1 -0.126465,0.164063 1.75,1.75 0 0 1 -0.223878,0.217041 1.75,1.75 0 0 1 -0.08374,0.06324 1.75,1.75 0 0 1 -0.176026,0.109375 1.75,1.75 0 0 1 -0.384521,0.155518 1.75,1.75 0 0 1 -0.205078,0.04101 1.75,1.75 0 0 1 -0.102539,0.01196 1.75,1.75 0 0 1 -0.104304,0.0068 1.75,1.75 0 0 1 -0.04272,0 1.75,1.75 0 0 1 -0.512696,-0.0769 1.75,1.75 0 0 1 -0.288818,-0.117919 1.75,1.75 0 0 1 -0.09058,-0.04956 1.75,1.75 0 0 1 -0.08716,-0.05639 1.75,1.75 0 0 1 -0.0018,0 1.75,1.75 0 0 1 -0.444336,-0.432373 1.75,1.75 0 0 1 -0.09058,-0.143555 1.75,1.75 0 0 1 -0.0188,-0.03418 1.75,1.75 0 0 1 -0.08887,-0.186279 1.75,1.75 0 0 1 0,-0.0018 1.75,1.75 0 0 1 -0.126427,-0.606656 1.75,1.75 0 0 1 0,-0.0018 1.75,1.75 0 0 1 0,-0.04273 1.75,1.75 0 0 1 0.148682,-0.70752 1.75,1.75 0 0 1 0.0957,-0.18457 1.75,1.75 0 0 1 0.11621,-0.172607 1.75,1.75 0 0 1 0.136719,-0.157226 1.75,1.75 0 0 1 0.07348,-0.07178 1.75,1.75 0 0 1 0.08033,-0.06836 1.75,1.75 0 0 1 0.169189,-0.121338 1.75,1.75 0 0 1 0.182861,-0.09912 1.75,1.75 0 0 1 0.393066,-0.131592 1.75,1.75 0 0 1 0.309397,-0.03584 z M 43,53.5 A 0.875,0.875 0 0 0 42.125,54.375 0.875,0.875 0 0 0 43,55.25 0.875,0.875 0 0 0 43.875,54.375 0.875,0.875 0 0 0 43,53.5 Z" /><path
   id="path864"
   style="fill:url(#radialGradient1021);stroke-width:0.999999"
   d="M 12.017578 10.894531 C 11.427883 10.894531 10.949219 11.373644 10.949219 11.964844 L 10.949219 43 C 10.949219 60.731468 25.299371 75.105469 43 75.105469 L 73.982422 75.105469 C 74.572117 75.105469 75.050781 74.625604 75.050781 74.035156 L 75.050781 43 C 75.050781 25.268532 60.700629 10.894531 43 10.894531 L 12.017578 10.894531 z M 27.947266 16 A 3 3 0 0 1 27.949219 16 A 3 3 0 0 1 28 16 A 3 3 0 0 1 31 19 A 3 3 0 0 1 29 21.828125 L 29 27.585938 L 32.416016 31.001953 C 35.081025 28.650709 38.453008 27.253676 42 27.03125 L 42 21.826172 A 3 3 0 0 1 40 19 A 3 3 0 0 1 42.949219 16 A 3 3 0 0 1 43 16 A 3 3 0 0 1 46 19 A 3 3 0 0 1 44 21.828125 L 44 27.03125 C 47.546992 27.253676 50.918975 28.650709 53.583984 31.001953 L 55.585938 29 L 58.171875 29 A 3 3 0 0 1 60.949219 27 A 3 3 0 0 1 61 27 A 3 3 0 0 1 64 30 A 3 3 0 0 1 61 33 A 3 3 0 0 1 58.171875 31 L 56.414062 31 L 54.998047 32.416016 C 57.547483 35.305435 58.968512 39.017865 59 42.871094 L 59 42 L 66 42 L 66 46.173828 A 3 3 0 0 1 68 49 A 3 3 0 0 1 65 52 A 3 3 0 0 1 62 49 A 3 3 0 0 1 64 46.171875 L 64 44 L 59 44 L 59 43 C 58.999699 46.897675 57.576656 50.661203 54.998047 53.583984 L 60.414062 59 L 65.171875 59 A 3 3 0 0 1 67.949219 57 A 3 3 0 0 1 68 57 A 3 3 0 0 1 71 60 A 3 3 0 0 1 68 63 A 3 3 0 0 1 65.171875 61 L 61 61 L 61 64.173828 A 3 3 0 0 1 63 67 A 3 3 0 0 1 60 70 A 3 3 0 0 1 57 67 A 3 3 0 0 1 59 64.171875 L 59 60.414062 L 53.583984 54.998047 C 50.694565 57.547483 46.982135 58.968512 43.128906 59 L 44 59 L 44 66 L 46.171875 66 A 3 3 0 0 1 48.949219 64 A 3 3 0 0 1 49 64 A 3 3 0 0 1 52 67 A 3 3 0 0 1 49 70 A 3 3 0 0 1 46.171875 68 L 43 68 L 42 68 L 39.826172 68 A 3 3 0 0 1 37 70 A 3 3 0 0 1 34 67 A 3 3 0 0 1 36.949219 64 A 3 3 0 0 1 37 64 A 3 3 0 0 1 39.828125 66 L 42 66 L 42 59 L 43 59 C 38.858169 58.999332 34.877976 57.392552 31.896484 54.517578 L 29.707031 56.707031 A 3 3 0 0 1 30 58 A 3 3 0 0 1 27 61 A 3 3 0 0 1 24 58 A 3 3 0 0 1 26.949219 55 A 3 3 0 0 1 27 55 A 3 3 0 0 1 28.292969 55.292969 L 30.544922 53.041016 C 28.466407 50.463516 27.238753 47.304644 27.03125 44 L 27 44 L 21 44 L 21 48.15625 A 3 3 0 0 1 23.050781 51 A 3 3 0 0 1 20.050781 54 A 3 3 0 0 1 17.050781 51 A 3 3 0 0 1 19 48.191406 L 19 44 L 19 40.826172 A 3 3 0 0 1 17 38 A 3 3 0 0 1 19.949219 35 A 3 3 0 0 1 20 35 A 3 3 0 0 1 23 38 A 3 3 0 0 1 21 40.828125 L 21 42 L 27 42 L 27.03125 42 C 27.253676 38.453008 28.650709 35.081025 31.001953 32.416016 L 27.585938 29 L 22.826172 29 A 3 3 0 0 1 20 31 A 3 3 0 0 1 17 28 A 3 3 0 0 1 19.949219 25 A 3 3 0 0 1 20 25 A 3 3 0 0 1 22.828125 27 L 27 27 L 27 21.826172 A 3 3 0 0 1 25 19 A 3 3 0 0 1 27.947266 16 z M 28 18 A 0.99999999 0.99999999 0 0 0 27 19 A 0.99999999 0.99999999 0 0 0 28 20 A 0.99999999 0.99999999 0 0 0 29 19 A 0.99999999 0.99999999 0 0 0 28 18 z M 43 18 A 0.99999999 0.99999999 0 0 0 42 19 A 0.99999999 0.99999999 0 0 0 43 20 A 0.99999999 0.99999999 0 0 0 44 19 A 0.99999999 0.99999999 0 0 0 43 18 z M 20 27 A 0.99999999 0.99999999 0 0 0 19 28 A 0.99999999 0.99999999 0 0 0 20 29 A 0.99999999 0.99999999 0 0 0 21 28 A 0.99999999 0.99999999 0 0 0 20 27 z M 61 29 A 0.99999999 0.99999999 0 0 0 60 30 A 0.99999999 0.99999999 0 0 0 61 31 A 0.99999999 0.99999999 0 0 0 62 30 A 0.99999999 0.99999999 0 0 0 61 29 z M 20 37 A 0.99999999 0.99999999 0 0 0 19 38 A 0.99999999 0.99999999 0 0 0 20 39 A 0.99999999 0.99999999 0 0 0 21 38 A 0.99999999 0.99999999 0 0 0 20 37 z M 65 48 A 0.99999999 0.99999999 0 0 0 64 49 A 0.99999999 0.99999999 0 0 0 65 50 A 0.99999999 0.99999999 0 0 0 66 49 A 0.99999999 0.99999999 0 0 0 65 48 z M 20.050781 50 A 0.99999999 0.99999999 0 0 0 19.050781 51 A 0.99999999 0.99999999 0 0 0 20.050781 52 A 0.99999999 0.99999999 0 0 0 21.050781 51 A 0.99999999 0.99999999 0 0 0 20.050781 50 z M 27 57 A 0.99999999 0.99999999 0 0 0 26 58 A 0.99999999 0.99999999 0 0 0 27 59 A 0.99999999 0.99999999 0 0 0 28 58 A 0.99999999 0.99999999 0 0 0 27 57 z M 68 59 A 0.99999999 0.99999999 0 0 0 67 60 A 0.99999999 0.99999999 0 0 0 68 61 A 0.99999999 0.99999999 0 0 0 69 60 A 0.99999999 0.99999999 0 0 0 68 59 z M 37 66 A 0.99999999 0.99999999 0 0 0 36 67 A 0.99999999 0.99999999 0 0 0 37 68 A 0.99999999 0.99999999 0 0 0 38 67 A 0.99999999 0.99999999 0 0 0 37 66 z M 49 66 A 0.99999999 0.99999999 0 0 0 48 67 A 0.99999999 0.99999999 0 0 0 49 68 A 0.99999999 0.99999999 0 0 0 50 67 A 0.99999999 0.99999999 0 0 0 49 66 z M 60 66 A 0.99999999 0.99999999 0 0 0 59 67 A 0.99999999 0.99999999 0 0 0 60 68 A 0.99999999 0.99999999 0 0 0 61 67 A 0.99999999 0.99999999 0 0 0 60 66 z " /></svg>
